# xmcd
#
# Track frame offsets: 
#        150
#        18865
#        33124
#        45667
#        59265
#        70738
#        85303
#        101711
#        117643
#        130919
#        146245
#        162157
#        180476
#        192418
#        208721
#
# Disc length: 2975 seconds
#
# Revision: 0
# Processed by: cddbd v1.5.2PL0 Copyright (c) Steve Scherf et al.
# Submitted via: ExactAudioCopyFreeDBPlugin 1.0
#
DISCID=d40b9d0f
DTITLE=Horecká Hana - Best Of 1990-1998
DYEAR=2007
DGENRE=Country
TTITLE0=Tenkrát na západě
TTITLE1=Nejsmutnější chvíle
TTITLE2=Country v hlavě
TTITLE3=Ženská jak má být
TTITLE4=Kovboj je správnej chlap
TTITLE5=Co nám brání
TTITLE6=Green Rolling Hills
TTITLE7=Butterfly Love
TTITLE8=Bosá holka
TTITLE9=Diamond in My Crown
TTITLE10=Vlásek
TTITLE11=Vzpomínání
TTITLE12=Kovbojská svatba
TTITLE13=Houslový král
TTITLE14=What We Know Now
EXTD=
EXTT0=
EXTT1=
EXTT2=
EXTT3=
EXTT4=
EXTT5=
EXTT6=
EXTT7=
EXTT8=
EXTT9=
EXTT10=
EXTT11=
EXTT12=
EXTT13=
EXTT14=
PLAYORDER=
